<mxfile host="app.diagrams.net" modified="2023-08-03T14:38:21.350Z" agent="Mozilla/5.0 (Windows NT 10.0; Win64; x64) AppleWebKit/537.36 (KHTML, like Gecko) Chrome/115.0.0.0 Safari/537.36" version="21.3.7" etag="uAlLMeLMekJPaA1AgTdO" type="github">
  <diagram name="페이지-1" id="_PPZwAj6zXwq5nB0KmiT">
    <mxGraphModel>
      <root>
        <mxCell id="0" />
        <mxCell id="1" parent="0" />
      </root>
    </mxGraphModel>
  </diagram>
</mxfile>
